<svg width="22" height="24" viewBox="0 0 22 24" fill="none" xmlns="http://www.w3.org/2000/svg">
<path d="M8.23162 0C7.53927 0 6.97799 0.519933 6.97799 1.16129C6.97799 1.80265 7.53927 2.32258 8.23162 2.32258V0ZM13.7726 2.32258C14.465 2.32258 15.0263 1.80265 15.0263 1.16129C15.0263 0.519933 14.465 0 13.7726 0V2.32258ZM8.99633 19.7419C8.99633 19.1006 8.43504 18.5806 7.7427 18.5806C7.05035 18.5806 6.48908 19.1006 6.48908 19.7419H8.99633ZM15.5152 19.7419C15.5152 19.1006 14.9539 18.5806 14.2616 18.5806C13.5692 18.5806 13.0079 19.1006 13.0079 19.7419H15.5152ZM11.0021 3.98865L11.0391 2.82787C11.0148 2.8272 10.9908 2.82718 10.9665 2.82782L11.0021 3.98865ZM19.141 10.8511L20.3899 10.7512C20.3878 10.7288 20.3851 10.7065 20.3816 10.6842L19.141 10.8511ZM20.1188 15.4963L18.9209 15.8386C18.9617 15.9609 19.0238 16.0763 19.1052 16.1797L20.1188 15.4963ZM20.4984 18.4568L21.5881 19.0312C21.6143 18.9882 21.6377 18.9437 21.6581 18.8981L20.4984 18.4568ZM18.1842 19.7373V20.8987L18.2001 20.8984L18.1842 19.7373ZM3.81673 19.7373L3.80089 20.8986H3.81673V19.7373ZM1.50254 18.4568L0.343354 18.899C0.36353 18.9444 0.386797 18.9885 0.413006 19.0312L1.50254 18.4568ZM1.87574 15.5009L2.89139 16.1816C2.97169 16.0789 3.03325 15.9645 3.07363 15.8433L1.87574 15.5009ZM2.85356 10.8557L1.61284 10.6894C1.60942 10.7116 1.60666 10.7337 1.60459 10.7559L2.85356 10.8557ZM8.23162 2.32258H13.7726V0H8.23162V2.32258ZM6.48908 19.7419C6.48908 22.0658 8.47984 24 11.0021 24V21.6774C9.92401 21.6774 8.99633 20.8388 8.99633 19.7419H6.48908ZM11.0021 24C13.5244 24 15.5152 22.0658 15.5152 19.7419H13.0079C13.0079 20.8388 12.0802 21.6774 11.0021 21.6774V24ZM10.9652 5.14942C14.4387 5.24422 17.3797 7.69635 17.9002 11.018L20.3816 10.6842C19.6926 6.28829 15.7746 2.95709 11.0391 2.82787L10.9652 5.14942ZM17.8919 10.951C18.0467 12.6107 18.3915 14.2497 18.9209 15.8386L21.3166 15.1539C20.8401 13.723 20.5292 12.2467 20.3899 10.7512L17.8919 10.951ZM19.1052 16.1797C19.5178 16.7046 19.6095 17.4051 19.3389 18.0155L21.6581 18.8981C22.2575 17.5465 22.0604 15.9939 21.1323 14.8128L19.1052 16.1797ZM19.4089 17.8823C19.1427 18.3159 18.6676 18.5703 18.1685 18.5762L18.2001 20.8984C19.61 20.882 20.8919 20.1642 21.5881 19.0312L19.4089 17.8823ZM18.1842 18.576H3.81673V20.8986L18.1842 20.8987V18.576ZM3.83256 18.5762C3.33342 18.5703 2.85841 18.3159 2.59206 17.8823L0.413006 19.0312C1.10914 20.1642 2.39096 20.8822 3.80089 20.8986L3.83256 18.5762ZM2.66171 18.0146C2.39103 17.4057 2.48129 16.7066 2.89139 16.1816L0.860099 14.8202C-0.0624521 16.0013 -0.256079 17.5507 0.343354 18.899L2.66171 18.0146ZM3.07363 15.8433C3.60291 14.2543 3.9479 12.6153 4.10254 10.9556L1.60459 10.7559C1.46523 12.2513 1.15443 13.7277 0.677838 15.1586L3.07363 15.8433ZM4.09429 11.022C4.61359 7.69587 7.55974 5.24083 11.0377 5.14947L10.9665 2.82782C6.2248 2.95239 2.30011 6.28766 1.61284 10.6894L4.09429 11.022Z" fill="white"/>
</svg>
